<svg xmlns="http://www.w3.org/2000/svg" viewBox="0 0 100 100" aria-hidden="true">
  <path d="M16 50a34 34 0 0 0 68 0z" fill="#f0d9b5"/>
  <ellipse cx="50" cy="50" rx="34" ry="10" fill="#c9522e"/>
  <rect x="28" y="36" width="16" height="8" rx="4" fill="#eab154" transform="rotate(-14 36 40)"/>
  <rect x="48" y="32" width="16" height="8" rx="4" fill="#f2c14e" transform="rotate(10 56 36)"/>
  <rect x="56" y="44" width="16" height="8" rx="4" fill="#eab154" transform="rotate(-8 64 48)"/>
  <circle cx="36" cy="50" r="4" fill="#6b3f22"/>
  <circle cx="52" cy="46" r="4" fill="#6b3f22"/>
  <circle cx="46" cy="56" r="4" fill="#6b3f22"/>
  <path d="M66 28q4 2 2 6t-6 0q0-6 4-6z" fill="#4d9448"/>
  <circle cx="30" cy="28" r="3.5" fill="#b3402a"/>
</svg>
