<svg xmlns="http://www.w3.org/2000/svg" viewBox="0 0 100 100" aria-hidden="true">
  <path d="M14 50a36 36 0 0 0 72 0z" fill="#e8e0d0"/>
  <ellipse cx="50" cy="50" rx="36" ry="10" fill="#5c2328"/>
  <ellipse cx="50" cy="48" rx="30" ry="7" fill="#7d3236"/>
  <rect x="30" y="42" width="13" height="9" rx="3" fill="#f0d9b5"/>
  <rect x="53" y="44" width="13" height="9" rx="3" fill="#eac89a"/>
  <ellipse cx="64" cy="36" rx="7" ry="4.5" fill="#8a5432"/>
  <ellipse cx="37" cy="35" rx="6" ry="4" fill="#8a5432"/>
  <circle cx="45" cy="49" r="3" fill="#e8842e"/>
  <circle cx="59" cy="51" r="3" fill="#e8842e"/>
  <circle cx="48" cy="40" r="2" fill="#3a1518"/>
  <circle cx="61" cy="41" r="2" fill="#3a1518"/>
  <circle cx="41" cy="45" r="1.8" fill="#4d9448"/>
  <path d="M40 26q3-6 0-10M52 26q3-6 0-10" stroke="#c9a27e" stroke-width="3" fill="none" stroke-linecap="round"/>
</svg>
