<svg xmlns="http://www.w3.org/2000/svg" viewBox="0 0 100 100" aria-hidden="true">
  <ellipse cx="50" cy="60" rx="42" ry="24" fill="#4a4754"/>
  <ellipse cx="50" cy="57" rx="36" ry="20" fill="#2f2d38"/>
  <ellipse cx="50" cy="55" rx="31" ry="16" fill="#f2dca8"/>
  <ellipse cx="46" cy="52" rx="20" ry="9" fill="#faf0d0"/>
  <path d="M30 52q3-9 13-9t14 7q4 6-2 10t-22 0q-6-3-3-8z" fill="#d98e3f"/>
  <path d="M56 50q6-4 12 0t-1 9q-7 4-13-1q-4-4 2-8z" fill="#e0a052"/>
  <path d="M36 48q5-6 12-6" stroke="#f0b877" stroke-width="2.4" fill="none" stroke-linecap="round"/>
  <path d="M64 47q4-3 8 0" stroke="#f0b877" stroke-width="2.4" fill="none" stroke-linecap="round"/>
  <ellipse cx="42" cy="58" rx="6" ry="3.4" fill="#efe3d0"/>
  <ellipse cx="62" cy="57" rx="5.4" ry="3" fill="#efe3d0"/>
  <path d="M28 60q6 4 12 2" stroke="#faf0d0" stroke-width="2" fill="none" stroke-linecap="round"/>
  <path d="M72 43q4-6 8-5" stroke="#3f7f3a" stroke-width="2.6" fill="none" stroke-linecap="round"/>
  <path d="M74 43q2-4 5-5" stroke="#3f7f3a" stroke-width="2" fill="none" stroke-linecap="round"/>
  <path d="M30 45q-4-5-8-4" stroke="#3f7f3a" stroke-width="2.6" fill="none" stroke-linecap="round"/>
  <circle cx="50" cy="44" r="1.5" fill="#3f7f3a"/>
  <circle cx="56" cy="60" r="1.5" fill="#3f7f3a"/>
  <circle cx="34" cy="57" r="1.3" fill="#a63a2a"/>
</svg>
