<svg xmlns="http://www.w3.org/2000/svg" viewBox="0 0 100 100" fill="none" stroke="currentColor" stroke-width="4" stroke-linecap="round" stroke-linejoin="round" aria-hidden="true">
  <!-- salad bowl -->
  <path d="M20 46h60"/>
  <path d="M20 46a6 6 0 0 0 6 6h48a6 6 0 0 0 6-6"/>
  <path d="M24 52l-3 10a6 6 0 0 0 6 6h46a6 6 0 0 0 6-6l-3-10"/>
  <!-- assorted leaves -->
  <path d="M32 38c-1-7 5-11 4-16M44 34c1-5-2-9 0-14M56 36c3-5 0-10 4-14"/>
  <!-- couscous pearls -->
  <circle cx="46" cy="58" r="2"/><circle cx="54" cy="62" r="2"/><circle cx="50" cy="54" r="2"/>
  <!-- chèvre crumble -->
  <circle cx="62" cy="56" r="2.5"/><circle cx="68" cy="60" r="2.5"/>
  <!-- roasted carrot -->
  <path d="M30 56l-8 6"/>
</svg>
